<svg width="425" height="108" viewBox="0 0 425 108" fill="none" xmlns="http://www.w3.org/2000/svg">
<path d="M166.786 22.6911V32.7816H134.757V22.6911H166.786ZM144.791 27.7364L142.183 43.5524L136.628 37.4301H168.883V48.9945H127.727L130.845 27.7364L127.727 6.47821H168.6V18.0427H136.628L142.183 11.9203L144.791 27.7364Z" fill="#47416D"/>
<path d="M173.448 34.9925H188.3C188.452 35.8239 188.886 36.542 189.604 37.1467C190.322 37.7135 191.305 38.167 192.552 38.5072C193.799 38.8095 195.292 38.9607 197.03 38.9607C199.298 38.9607 201.055 38.7339 202.302 38.2804C203.587 37.8269 204.23 37.09 204.23 36.0696C204.23 35.3893 203.871 34.8224 203.153 34.3689C202.435 33.8776 200.961 33.5564 198.731 33.4052L191.702 32.9517C185.315 32.536 180.704 31.1755 177.87 28.8701C175.035 26.5648 173.618 23.5225 173.618 19.7433C173.618 16.5688 174.525 13.9233 176.339 11.8069C178.153 9.69056 180.685 8.10328 183.935 7.0451C187.223 5.98691 191.059 5.45782 195.443 5.45782C199.714 5.45782 203.493 6.0625 206.781 7.27185C210.107 8.44341 212.733 10.1063 214.661 12.2604C216.626 14.4146 217.703 16.9278 217.892 19.8H203.039C202.926 19.1197 202.548 18.534 201.906 18.0427C201.301 17.5514 200.432 17.1734 199.298 16.9089C198.164 16.6443 196.785 16.5121 195.16 16.5121C193.081 16.5121 191.437 16.7199 190.228 17.1356C189.056 17.5514 188.47 18.2316 188.47 19.1764C188.47 19.8189 188.811 20.3669 189.491 20.8204C190.209 21.2739 191.569 21.5762 193.572 21.7274L201.509 22.2376C205.666 22.5021 209.029 23.1257 211.599 24.1083C214.169 25.0531 216.04 26.3758 217.212 28.0765C218.421 29.7772 219.026 31.8746 219.026 34.3689C219.026 37.5057 218.1 40.2456 216.248 42.5887C214.396 44.9319 211.788 46.7648 208.425 48.0875C205.099 49.3725 201.206 50.0149 196.747 50.0149C192.136 50.0149 188.093 49.3914 184.616 48.1442C181.139 46.8971 178.418 45.1397 176.453 42.8722C174.525 40.6046 173.524 37.9781 173.448 34.9925Z" fill="#47416D"/>
<path d="M273.056 30.5708C272.603 34.4634 271.261 37.8647 269.031 40.7747C266.839 43.6847 263.929 45.9523 260.301 47.5773C256.673 49.2024 252.516 50.0149 247.83 50.0149C242.766 50.0149 238.344 49.089 234.565 47.2372C230.786 45.3854 227.838 42.7966 225.721 39.4709C223.643 36.1074 222.604 32.1959 222.604 27.7364C222.604 23.2769 223.643 19.3843 225.721 16.0586C227.838 12.695 230.786 10.0874 234.565 8.23555C238.344 6.38373 242.766 5.45782 247.83 5.45782C252.516 5.45782 256.673 6.27035 260.301 7.89542C263.929 9.52049 266.839 11.788 269.031 14.698C271.261 17.608 272.603 21.0093 273.056 24.902H258.374C258.034 23.4281 257.41 22.1809 256.503 21.1605C255.596 20.1023 254.406 19.3087 252.932 18.7796C251.496 18.2127 249.795 17.9293 247.83 17.9293C245.638 17.9293 243.748 18.3261 242.161 19.1197C240.612 19.8756 239.421 20.9904 238.59 22.4643C237.758 23.9382 237.343 25.6956 237.343 27.7364C237.343 29.7772 237.758 31.5345 238.59 33.0084C239.421 34.4445 240.612 35.5594 242.161 36.353C243.748 37.1466 245.638 37.5435 247.83 37.5435C249.795 37.5435 251.496 37.2978 252.932 36.8065C254.406 36.2774 255.596 35.5027 256.503 34.4823C257.41 33.4241 258.034 32.1203 258.374 30.5708H273.056Z" fill="#47416D"/>
<path d="M302.263 50.0149C297.086 50.0149 292.551 49.089 288.658 47.2372C284.803 45.3854 281.799 42.7966 279.645 39.4709C277.49 36.1074 276.413 32.1959 276.413 27.7364C276.413 23.2769 277.49 19.3843 279.645 16.0586C281.799 12.695 284.803 10.0874 288.658 8.23555C292.551 6.38373 297.086 5.45782 302.263 5.45782C307.441 5.45782 311.957 6.38373 315.812 8.23555C319.704 10.0874 322.728 12.695 324.882 16.0586C327.036 19.3843 328.113 23.2769 328.113 27.7364C328.113 32.1959 327.036 36.1074 324.882 39.4709C322.728 42.7966 319.704 45.3854 315.812 47.2372C311.957 49.089 307.441 50.0149 302.263 50.0149ZM302.263 36.9766C304.569 36.9766 306.553 36.6176 308.215 35.8995C309.878 35.1437 311.144 34.0855 312.014 32.725C312.921 31.3266 313.374 29.6638 313.374 27.7364C313.374 25.809 312.921 24.165 312.014 22.8045C311.144 21.4062 309.878 20.348 308.215 19.6299C306.553 18.8741 304.569 18.4962 302.263 18.4962C299.958 18.4962 297.974 18.8741 296.311 19.6299C294.648 20.348 293.363 21.4062 292.456 22.8045C291.587 24.165 291.152 25.809 291.152 27.7364C291.152 29.6638 291.587 31.3266 292.456 32.725C293.363 34.0855 294.648 35.1437 296.311 35.8995C297.974 36.6176 299.958 36.9766 302.263 36.9766Z" fill="#47416D"/>
<path d="M343.396 24.6752H357.681C359.117 24.6752 360.232 24.3351 361.026 23.6548C361.819 22.9745 362.216 21.9919 362.216 20.707C362.216 19.4221 361.819 18.4395 361.026 17.7592C360.232 17.0789 359.117 16.7388 357.681 16.7388H341.355L347.931 10.163V48.9945H333.305V6.47821H359.949C363.35 6.47821 366.317 7.08289 368.849 8.29224C371.418 9.4638 373.403 11.1078 374.801 13.2241C376.237 15.3405 376.955 17.8348 376.955 20.707C376.955 23.5036 376.237 25.979 374.801 28.1332C373.403 30.2496 371.418 31.8935 368.849 33.0651C366.317 34.2366 363.35 34.8224 359.949 34.8224H343.396V24.6752ZM348.384 29.0969H364.54L378.656 48.9945H361.933L348.384 29.0969Z" fill="#47416D"/>
<path d="M395.006 12.7706H409.632V48.9945H395.006V12.7706ZM379.7 6.47821H424.937V19.5165H379.7V6.47821Z" fill="#47416D"/>
<path d="M177.727 87.5708C177.273 91.4634 175.932 94.8647 173.702 97.7747C171.51 100.685 168.6 102.952 164.972 104.577C161.344 106.202 157.187 107.015 152.5 107.015C147.436 107.015 143.014 106.089 139.235 104.237C135.456 102.385 132.508 99.7966 130.392 96.4709C128.313 93.1074 127.274 89.1959 127.274 84.7364C127.274 80.2769 128.313 76.3843 130.392 73.0586C132.508 69.695 135.456 67.0874 139.235 65.2355C143.014 63.3837 147.436 62.4578 152.5 62.4578C157.187 62.4578 161.344 63.2704 164.972 64.8954C168.6 66.5205 171.51 68.788 173.702 71.698C175.932 74.608 177.273 78.0093 177.727 81.9019H163.044C162.704 80.428 162.081 79.1809 161.174 78.1605C160.267 77.1023 159.076 76.3087 157.602 75.7796C156.166 75.2127 154.466 74.9293 152.5 74.9293C150.308 74.9293 148.419 75.3261 146.831 76.1197C145.282 76.8756 144.092 77.9904 143.26 79.4643C142.429 80.9382 142.013 82.6956 142.013 84.7364C142.013 86.7772 142.429 88.5345 143.26 90.0084C144.092 91.4445 145.282 92.5594 146.831 93.353C148.419 94.1466 150.308 94.5435 152.5 94.5435C154.466 94.5435 156.166 94.2978 157.602 93.8065C159.076 93.2774 160.267 92.5027 161.174 91.4823C162.081 90.4241 162.704 89.1203 163.044 87.5708H177.727Z" fill="#47416D"/>
<path d="M197.297 63.4782V99.5321L190.721 92.9562H222.353V105.995H182.671V63.4782H197.297Z" fill="#47416D"/>
<path d="M249.671 107.015C244.494 107.015 239.959 106.089 236.066 104.237C232.211 102.385 229.207 99.7966 227.053 96.4709C224.899 93.1074 223.821 89.1959 223.821 84.7364C223.821 80.2769 224.899 76.3843 227.053 73.0586C229.207 69.695 232.211 67.0874 236.066 65.2355C239.959 63.3837 244.494 62.4578 249.671 62.4578C254.849 62.4578 259.365 63.3837 263.22 65.2355C267.113 67.0874 270.136 69.695 272.29 73.0586C274.444 76.3843 275.521 80.2769 275.521 84.7364C275.521 89.1959 274.444 93.1074 272.29 96.4709C270.136 99.7966 267.113 102.385 263.22 104.237C259.365 106.089 254.849 107.015 249.671 107.015ZM249.671 93.9766C251.977 93.9766 253.961 93.6176 255.624 92.8995C257.287 92.1437 258.553 91.0855 259.422 89.725C260.329 88.3266 260.782 86.6638 260.782 84.7364C260.782 82.809 260.329 81.165 259.422 79.8045C258.553 78.4062 257.287 77.348 255.624 76.6299C253.961 75.8741 251.977 75.4962 249.671 75.4962C247.366 75.4962 245.382 75.8741 243.719 76.6299C242.056 77.348 240.771 78.4062 239.864 79.8045C238.995 81.165 238.56 82.809 238.56 84.7364C238.56 86.6638 238.995 88.3266 239.864 89.725C240.771 91.0855 242.056 92.1437 243.719 92.8995C245.382 93.6176 247.366 93.9766 249.671 93.9766Z" fill="#47416D"/>
<path d="M294.772 86.4937C294.772 88.0432 295.036 89.3848 295.566 90.5186C296.132 91.6146 296.983 92.4649 298.117 93.0696C299.25 93.6742 300.705 93.9766 302.482 93.9766C304.296 93.9766 305.769 93.6931 306.903 93.1263C308.037 92.5216 308.868 91.6524 309.398 90.5186C309.927 89.3848 310.191 88.0432 310.191 86.4937V63.4782H324.817V87.2874C324.817 91.2555 323.891 94.7135 322.039 97.6613C320.187 100.609 317.58 102.914 314.216 104.577C310.89 106.202 306.979 107.015 302.482 107.015C298.022 107.015 294.111 106.202 290.747 104.577C287.421 102.914 284.814 100.609 282.924 97.6613C281.072 94.7135 280.146 91.2555 280.146 87.2874V63.4782H294.772V86.4937Z" fill="#47416D"/>
<path d="M353.653 63.4782C358.83 63.4782 363.346 64.3663 367.201 66.1426C371.094 67.881 374.117 70.3375 376.271 73.5121C378.425 76.6866 379.503 80.4281 379.503 84.7364C379.503 89.0069 378.425 92.7483 376.271 95.9607C374.117 99.1352 371.094 101.611 367.201 103.387C363.346 105.125 358.83 105.995 353.653 105.995H331.091V63.4782H353.653ZM345.603 99.4754L339.027 92.9562H354.786C356.865 92.9562 358.641 92.635 360.115 91.9925C361.627 91.3122 362.779 90.3674 363.573 89.1581C364.367 87.9109 364.764 86.437 364.764 84.7364C364.764 82.9979 364.367 81.524 363.573 80.3147C362.779 79.1053 361.627 78.1794 360.115 77.5369C358.641 76.8567 356.865 76.5165 354.786 76.5165H339.027L345.603 69.9974V99.4754Z" fill="#47416D"/>
<path d="M77.8179 91.1879C87.8634 84.8393 94.9572 80.0428 98.3439 75.5047C119.571 53.3076 99.8101 31.8103 82.3314 20.9009C72.3172 14.6505 62.9739 8.00721 57.6289 5.90793C54.071 5.04522 45.294 0.315231 36.4659 0.0265276C25.4308 -0.33435 17.8715 2.96808 9.41842 11.0786C2.65598 17.567 0.617179 26.1573 0.443089 29.6414C-0.167414 32.5483 -0.859939 39.7508 3.68771 47.3025C9.41842 56.8187 4.34013 61.0433 1.92723 67.5135C-0.00309348 72.6896 1.29433 80.8253 2.18434 84.2462C3.11751 87.9066 6.6951 96.3249 13.5401 100.715C22.0962 106.203 17.524 104.519 30.5546 107.165C40.9792 109.282 51.2386 104.629 56.6667 102.058C62.0949 99.4867 67.7724 97.5365 77.8179 91.1879Z" fill="#E85588"/>
<path d="M77.8179 91.1879C87.8634 84.8393 94.9572 80.0428 98.3439 75.5047C119.571 53.3076 99.8101 31.8103 82.3314 20.9009C72.3172 14.6505 62.9739 8.00721 57.6289 5.90793C54.071 5.04522 45.294 0.315231 36.4659 0.0265276C25.4308 -0.33435 17.8715 2.96808 9.41842 11.0786C2.65598 17.567 0.617179 26.1573 0.443089 29.6414C-0.167414 32.5483 -0.859939 39.7508 3.68771 47.3025C9.41842 56.8187 4.34013 61.0433 1.92723 67.5135C-0.00309348 72.6896 1.29433 80.8253 2.18434 84.2462C3.11751 87.9066 6.6951 96.3249 13.5401 100.715C22.0962 106.203 17.524 104.519 30.5546 107.165C40.9792 109.282 51.2386 104.629 56.6667 102.058C62.0949 99.4867 67.7724 97.5365 77.8179 91.1879Z" fill="url(#paint0_linear_5106_5859)" fill-opacity="0.23"/>
<path d="M84.9314 57.2584C86.1158 57.2584 87.0525 58.2867 86.7964 59.4431C86.3634 61.3988 85.6238 63.16 84.5778 64.7266C83.1799 66.8564 81.324 68.516 79.0102 69.7054C76.6964 70.8947 74.0451 71.4894 71.0565 71.4894C67.8268 71.4894 65.0068 70.8118 62.5966 69.4564C60.1864 68.1011 58.3064 66.2064 56.9567 63.7723C56.42 62.7757 55.9918 61.6971 55.6723 60.5587C55.4115 59.6294 54.6021 58.9363 53.6369 58.9369C49.9236 58.9393 41.0475 58.9455 37.0565 58.9482C35.9519 58.949 35.0596 58.0549 35.062 56.9504C35.0643 55.8192 35.0676 54.4899 35.0699 53.356C35.0722 52.2514 35.9603 51.3569 37.0649 51.3574C40.9995 51.3592 49.7149 51.3668 53.5102 51.3988C54.5317 51.4075 55.4265 50.6626 55.7126 49.6819C56.0274 48.6027 56.4421 47.5819 56.9567 46.6371C58.3064 44.1753 60.1864 42.2668 62.5966 40.9115C65.0068 39.5561 67.8268 38.8785 71.0565 38.8785C74.0451 38.8785 76.6964 39.4732 79.0102 40.6625C81.324 41.8519 83.1799 43.5115 84.5778 45.6413C85.6238 47.2079 86.3634 48.9691 86.7964 50.9248C87.0525 52.0812 86.1158 53.1095 84.9314 53.1095H79.4189C78.4663 53.1095 77.6813 52.4191 77.291 51.5501C77.0976 51.1196 76.8632 50.7266 76.5879 50.3711C76.0095 49.5967 75.2503 49.0158 74.3103 48.6286C73.3944 48.2137 72.3098 48.0062 71.0565 48.0062C69.6585 48.0062 68.4534 48.2966 67.4411 48.8775C66.4529 49.4307 65.6937 50.2467 65.1635 51.3254C64.6332 52.4041 64.3681 53.6903 64.3681 55.1839C64.3681 56.6776 64.6332 57.9638 65.1635 59.0425C65.6937 60.0936 66.4529 60.9095 67.4411 61.4904C68.4534 62.0713 69.6585 62.3617 71.0565 62.3617C72.3098 62.3617 73.3944 62.1819 74.3103 61.8223C75.2503 61.4351 76.0095 60.868 76.5879 60.1212C76.8738 59.7385 77.1155 59.312 77.313 58.8415C77.6846 57.9566 78.475 57.2584 79.4347 57.2584H84.9314Z" fill="#DEC0C0"/>
<path d="M34.8762 58.9463C34.3782 58.9463 33.9561 59.3128 33.8861 59.8058L33.6751 61.2925C33.5897 61.8946 34.057 62.433 34.6652 62.433L45.5226 62.433C46.6271 62.433 47.5226 63.3284 47.5226 64.433V69.1071C47.5226 70.2116 46.6271 71.1071 45.5226 71.1071L24.314 71.107C23.0243 71.107 22.0717 69.9042 22.3673 68.6488L25.0027 57.4534C25.3574 55.9464 25.3574 54.3777 25.0027 52.8707L22.3673 41.6753C22.0717 40.4199 23.0243 39.217 24.314 39.217H37.5564C38.6609 39.217 39.5564 40.1125 39.5564 41.217V45.8911C39.5564 46.9957 38.6609 47.8911 37.5564 47.8911H34.6571C34.0518 47.8911 33.5852 48.4248 33.6661 49.0247L33.863 50.4854C33.9297 50.9804 34.3514 51.3503 34.8509 51.3518L41.2264 51.3716C42.3286 51.375 43.2202 52.2695 43.2202 53.3716V56.9464C43.2202 58.0509 42.3248 58.9464 41.2202 58.9464L34.8762 58.9463Z" fill="#DEC0C0"/>
<defs>
<linearGradient id="paint0_linear_5106_5859" x1="-14.5773" y1="87.0049" x2="47.712" y2="-79.6807" gradientUnits="userSpaceOnUse">
<stop stop-color="#01CFF0" stop-opacity="0"/>
<stop offset="1" stop-color="#0EC6E5"/>
</linearGradient>
</defs>
</svg>
