<svg width="424" height="108" viewBox="0 0 424 108" fill="none" xmlns="http://www.w3.org/2000/svg">
<path d="M165.27 22.3327V32.4233H133.241V22.3327H165.27ZM143.275 27.378L140.668 43.1941L135.112 37.0717H167.368V48.6362H126.212L129.33 27.378L126.212 6.11983H167.084V17.6843H135.112L140.668 11.5619L143.275 27.378Z" fill="#DEC0C0"/>
<path d="M171.933 34.6341H186.785C186.936 35.4655 187.371 36.1836 188.089 36.7883C188.807 37.3552 189.789 37.8087 191.037 38.1488C192.284 38.4511 193.776 38.6023 195.515 38.6023C197.782 38.6023 199.54 38.3755 200.787 37.922C202.072 37.4685 202.714 36.7316 202.714 35.7112C202.714 35.0309 202.355 34.464 201.637 34.0105C200.919 33.5192 199.445 33.198 197.216 33.0468L190.186 32.5933C183.799 32.1776 179.189 30.8171 176.354 28.5118C173.52 26.2064 172.103 23.1641 172.103 19.3849C172.103 16.2104 173.01 13.5649 174.824 11.4485C176.638 9.33217 179.17 7.7449 182.42 6.68671C185.708 5.62853 189.544 5.09944 193.928 5.09944C198.198 5.09944 201.977 5.70411 205.265 6.91346C208.591 8.08503 211.218 9.74789 213.145 11.902C215.11 14.0562 216.187 16.5694 216.376 19.4416H201.524C201.41 18.7613 201.033 18.1756 200.39 17.6843C199.785 17.193 198.916 16.815 197.782 16.5505C196.649 16.286 195.269 16.1537 193.644 16.1537C191.566 16.1537 189.922 16.3615 188.712 16.7773C187.541 17.193 186.955 17.8732 186.955 18.818C186.955 19.4605 187.295 20.0085 187.975 20.462C188.693 20.9155 190.054 21.2178 192.057 21.369L199.993 21.8792C204.15 22.1438 207.514 22.7673 210.084 23.7499C212.654 24.6947 214.524 26.0175 215.696 27.7181C216.905 29.4188 217.51 31.5162 217.51 34.0105C217.51 37.1473 216.584 39.8872 214.732 42.2304C212.88 44.5735 210.273 46.4064 206.909 47.7291C203.584 49.0141 199.691 49.6565 195.231 49.6565C190.621 49.6565 186.577 49.033 183.1 47.7858C179.623 46.5387 176.902 44.7813 174.937 42.5138C173.01 40.2463 172.008 37.6197 171.933 34.6341Z" fill="#DEC0C0"/>
<path d="M271.541 30.2124C271.087 34.105 269.746 37.5063 267.516 40.4163C265.324 43.3263 262.414 45.5939 258.786 47.2189C255.158 48.844 251.001 49.6565 246.314 49.6565C241.25 49.6565 236.828 48.7306 233.049 46.8788C229.27 45.027 226.322 42.4382 224.206 39.1125C222.127 35.749 221.088 31.8375 221.088 27.378C221.088 22.9185 222.127 19.0259 224.206 15.7002C226.322 12.3367 229.27 9.72899 233.049 7.87717C236.828 6.02535 241.25 5.09944 246.314 5.09944C251.001 5.09944 255.158 5.91197 258.786 7.53704C262.414 9.16211 265.324 11.4296 267.516 14.3397C269.746 17.2497 271.087 20.651 271.541 24.5436H256.858C256.518 23.0697 255.895 21.8225 254.988 20.8021C254.081 19.7439 252.89 18.9503 251.416 18.4212C249.98 17.8543 248.28 17.5709 246.314 17.5709C244.122 17.5709 242.233 17.9677 240.646 18.7613C239.096 19.5172 237.906 20.6321 237.074 22.106C236.243 23.5799 235.827 25.3372 235.827 27.378C235.827 29.4188 236.243 31.1761 237.074 32.65C237.906 34.0861 239.096 35.201 240.646 35.9946C242.233 36.7883 244.122 37.1851 246.314 37.1851C248.28 37.1851 249.98 36.9394 251.416 36.4481C252.89 35.919 254.081 35.1443 254.988 34.1239C255.895 33.0657 256.518 31.7619 256.858 30.2124H271.541Z" fill="#DEC0C0"/>
<path d="M300.748 49.6565C295.57 49.6565 291.035 48.7306 287.142 46.8788C283.288 45.027 280.283 42.4382 278.129 39.1125C275.975 35.749 274.898 31.8375 274.898 27.378C274.898 22.9185 275.975 19.0259 278.129 15.7002C280.283 12.3367 283.288 9.72899 287.142 7.87717C291.035 6.02535 295.57 5.09944 300.748 5.09944C305.925 5.09944 310.441 6.02535 314.296 7.87717C318.189 9.72899 321.212 12.3367 323.366 15.7002C325.52 19.0259 326.598 22.9185 326.598 27.378C326.598 31.8375 325.52 35.749 323.366 39.1125C321.212 42.4382 318.189 45.027 314.296 46.8788C310.441 48.7306 305.925 49.6565 300.748 49.6565ZM300.748 36.6182C303.053 36.6182 305.037 36.2592 306.7 35.5411C308.363 34.7853 309.629 33.7271 310.498 32.3666C311.405 30.9683 311.859 29.3054 311.859 27.378C311.859 25.4506 311.405 23.8066 310.498 22.4461C309.629 21.0478 308.363 19.9896 306.7 19.2715C305.037 18.5157 303.053 18.1378 300.748 18.1378C298.442 18.1378 296.458 18.5157 294.795 19.2715C293.133 19.9896 291.848 21.0478 290.941 22.4461C290.071 23.8066 289.637 25.4506 289.637 27.378C289.637 29.3054 290.071 30.9683 290.941 32.3666C291.848 33.7271 293.133 34.7853 294.795 35.5411C296.458 36.2592 298.442 36.6182 300.748 36.6182Z" fill="#DEC0C0"/>
<path d="M341.88 24.3168H356.165C357.602 24.3168 358.716 23.9767 359.51 23.2964C360.304 22.6162 360.701 21.6336 360.701 20.3486C360.701 19.0637 360.304 18.0811 359.51 17.4008C358.716 16.7206 357.602 16.3804 356.165 16.3804H339.839L346.415 9.80457V48.6362H331.789V6.11983H358.433C361.834 6.11983 364.801 6.7245 367.333 7.93386C369.903 9.10542 371.887 10.7494 373.285 12.8657C374.721 14.9821 375.44 17.4764 375.44 20.3486C375.44 23.1453 374.721 25.6206 373.285 27.7748C371.887 29.8912 369.903 31.5351 367.333 32.7067C364.801 33.8783 361.834 34.464 358.433 34.464H341.88V24.3168ZM346.869 28.7385H363.025L377.14 48.6362H360.417L346.869 28.7385Z" fill="#DEC0C0"/>
<path d="M393.49 12.4122H408.116V48.6362H393.49V12.4122ZM378.184 6.11983H423.422V19.1582H378.184V6.11983Z" fill="#DEC0C0"/>
<path d="M176.211 87.2124C175.758 91.105 174.416 94.5063 172.186 97.4163C169.994 100.326 167.084 102.594 163.456 104.219C159.828 105.844 155.671 106.657 150.985 106.657C145.921 106.657 141.499 105.731 137.72 103.879C133.94 102.027 130.993 99.4382 128.876 96.1125C126.798 92.749 125.758 88.8375 125.758 84.378C125.758 79.9185 126.798 76.0259 128.876 72.7002C130.993 69.3367 133.94 66.729 137.72 64.8772C141.499 63.0253 145.921 62.0994 150.985 62.0994C155.671 62.0994 159.828 62.912 163.456 64.537C167.084 66.1621 169.994 68.4296 172.186 71.3397C174.416 74.2497 175.758 77.651 176.211 81.5436H161.529C161.189 80.0697 160.565 78.8225 159.658 77.8021C158.751 76.7439 157.561 75.9503 156.087 75.4212C154.651 74.8543 152.95 74.5709 150.985 74.5709C148.793 74.5709 146.903 74.9677 145.316 75.7613C143.766 76.5172 142.576 77.6321 141.745 79.106C140.913 80.5799 140.497 82.3372 140.497 84.378C140.497 86.4188 140.913 88.1761 141.745 89.65C142.576 91.0861 143.766 92.201 145.316 92.9946C146.903 93.7883 148.793 94.1851 150.985 94.1851C152.95 94.1851 154.651 93.9394 156.087 93.4481C157.561 92.919 158.751 92.1443 159.658 91.1239C160.565 90.0657 161.189 88.7619 161.529 87.2124H176.211Z" fill="#DEC0C0"/>
<path d="M195.781 63.1198V99.1737L189.205 92.5978H220.837V105.636H181.155V63.1198H195.781Z" fill="#DEC0C0"/>
<path d="M248.156 106.657C242.978 106.657 238.443 105.731 234.551 103.879C230.696 102.027 227.691 99.4382 225.537 96.1125C223.383 92.749 222.306 88.8375 222.306 84.378C222.306 79.9185 223.383 76.0259 225.537 72.7002C227.691 69.3367 230.696 66.729 234.551 64.8772C238.443 63.0253 242.978 62.0994 248.156 62.0994C253.333 62.0994 257.85 63.0253 261.704 64.8772C265.597 66.729 268.62 69.3367 270.775 72.7002C272.929 76.0259 274.006 79.9185 274.006 84.378C274.006 88.8375 272.929 92.749 270.775 96.1125C268.62 99.4382 265.597 102.027 261.704 103.879C257.85 105.731 253.333 106.657 248.156 106.657ZM248.156 93.6182C250.461 93.6182 252.445 93.2592 254.108 92.5411C255.771 91.7853 257.037 90.7271 257.906 89.3666C258.813 87.9683 259.267 86.3054 259.267 84.378C259.267 82.4506 258.813 80.8066 257.906 79.4461C257.037 78.0478 255.771 76.9896 254.108 76.2715C252.445 75.5157 250.461 75.1378 248.156 75.1378C245.851 75.1378 243.866 75.5157 242.204 76.2715C240.541 76.9896 239.256 78.0478 238.349 79.4461C237.48 80.8066 237.045 82.4506 237.045 84.378C237.045 86.3054 237.48 87.9683 238.349 89.3666C239.256 90.7271 240.541 91.7853 242.204 92.5411C243.866 93.2592 245.851 93.6182 248.156 93.6182Z" fill="#DEC0C0"/>
<path d="M293.256 86.1353C293.256 87.6848 293.521 89.0264 294.05 90.1602C294.617 91.2562 295.467 92.1065 296.601 92.7112C297.735 93.3159 299.19 93.6182 300.966 93.6182C302.78 93.6182 304.254 93.3348 305.388 92.7679C306.521 92.1632 307.353 91.294 307.882 90.1602C308.411 89.0264 308.676 87.6848 308.676 86.1353V63.1198H323.301V86.929C323.301 90.8972 322.375 94.3551 320.523 97.3029C318.672 100.251 316.064 102.556 312.701 104.219C309.375 105.844 305.463 106.657 300.966 106.657C296.507 106.657 292.595 105.844 289.232 104.219C285.906 102.556 283.298 100.251 281.409 97.3029C279.557 94.3551 278.631 90.8972 278.631 86.929V63.1198H293.256V86.1353Z" fill="#DEC0C0"/>
<path d="M352.137 63.1198C357.315 63.1198 361.831 64.0079 365.686 65.7842C369.578 67.5226 372.602 69.9791 374.756 73.1537C376.91 76.3282 377.987 80.0697 377.987 84.378C377.987 88.6485 376.91 92.3899 374.756 95.6023C372.602 98.7768 369.578 101.252 365.686 103.028C361.831 104.767 357.315 105.636 352.137 105.636H329.575V63.1198H352.137ZM344.087 99.117L337.511 92.5978H353.271C355.349 92.5978 357.126 92.2766 358.6 91.6341C360.111 90.9538 361.264 90.009 362.058 88.7997C362.851 87.5525 363.248 86.0786 363.248 84.378C363.248 82.6395 362.851 81.1656 362.058 79.9563C361.264 78.7469 360.111 77.821 358.6 77.1786C357.126 76.4983 355.349 76.1582 353.271 76.1582H337.511L344.087 69.639V99.117Z" fill="#DEC0C0"/>
<path d="M77.7362 91.1879C87.7817 84.8393 94.8754 80.0427 98.2621 75.5047C119.489 53.3076 99.7283 31.8103 82.2496 20.9009C72.2355 14.6505 62.8922 8.00722 57.5471 5.90793C53.9892 5.04523 45.2123 0.315231 36.3842 0.0265276C25.3491 -0.33435 17.7898 2.96809 9.33671 11.0786C2.57425 17.567 0.535461 26.1574 0.361371 29.6415C-0.24913 32.5483 -0.524819 40.3531 3.25644 48.3174C7.98302 58.2726 4.25841 61.0433 1.84551 67.5135C-0.084811 72.6896 1.21261 80.8253 2.10262 84.2462C3.0358 87.9066 6.61339 96.3249 13.4583 100.715C22.0145 106.203 17.4422 104.519 30.4729 107.165C40.8975 109.282 51.1569 104.629 56.585 102.058C62.0131 99.4867 67.6906 97.5365 77.7362 91.1879Z" fill="#E85588"/>
<path d="M77.7362 91.1879C87.7817 84.8393 94.8754 80.0427 98.2621 75.5047C119.489 53.3076 99.7283 31.8103 82.2496 20.9009C72.2355 14.6505 62.8922 8.00722 57.5471 5.90793C53.9892 5.04523 45.2123 0.315231 36.3842 0.0265276C25.3491 -0.33435 17.7898 2.96809 9.33671 11.0786C2.57425 17.567 0.535461 26.1574 0.361371 29.6415C-0.24913 32.5483 -0.524819 40.3531 3.25644 48.3174C7.98302 58.2726 4.25841 61.0433 1.84551 67.5135C-0.084811 72.6896 1.21261 80.8253 2.10262 84.2462C3.0358 87.9066 6.61339 96.3249 13.4583 100.715C22.0145 106.203 17.4422 104.519 30.4729 107.165C40.8975 109.282 51.1569 104.629 56.585 102.058C62.0131 99.4867 67.6906 97.5365 77.7362 91.1879Z" fill="url(#paint0_linear_5106_5858)" fill-opacity="0.23"/>
<path d="M89.3261 57.3414C89.0256 60.3015 88.1366 62.888 86.6591 65.1009C85.2067 67.3137 83.2784 69.038 80.8744 70.2738C78.4703 71.5096 75.7157 72.1274 72.6105 72.1274C69.2548 72.1274 66.3249 71.4233 63.8207 70.0152C61.3164 68.607 59.3632 66.6384 57.9608 64.1094C56.5835 61.5517 55.8948 58.5772 55.8948 55.1861C55.8948 51.7949 56.5835 48.8348 57.9608 46.3058C59.3632 43.7481 61.3164 41.7652 63.8207 40.357C66.3249 38.9488 69.2548 38.2447 72.6105 38.2447C75.7157 38.2447 78.4703 38.8626 80.8744 40.0983C83.2784 41.3341 85.2067 43.0584 86.6591 45.2713C88.1366 47.4841 89.0256 50.0706 89.3261 53.0307H79.5972C79.3718 51.9099 78.9586 50.9615 78.3576 50.1856C77.7566 49.3809 76.9678 48.7774 75.9911 48.375C75.0395 47.9439 73.9127 47.7284 72.6105 47.7284C71.158 47.7284 69.9059 48.0302 68.8541 48.6337C67.8274 49.2084 67.0386 50.0562 66.4876 51.177C65.9367 52.2978 65.6613 53.6342 65.6613 55.1861C65.6613 56.7379 65.9367 58.0743 66.4876 59.1951C67.0386 60.2872 67.8274 61.1349 68.8541 61.7384C69.9059 62.342 71.158 62.6437 72.6105 62.6437C73.9127 62.6437 75.0395 62.4569 75.9911 62.0833C76.9678 61.681 77.7566 61.0918 78.3576 60.3159C78.9586 59.5112 79.3718 58.5197 79.5972 57.3414H89.3261Z" fill="#DEC0C0"/>
<path d="M45.4978 51.2576V59.1213H24.0137V51.2576H45.4978ZM30.7441 55.1894L28.9949 67.5152L25.2685 62.7439H46.9047V71.7563H17.4901L21.3899 55.1894L17.4901 38.6226H46.7146V47.635H25.2685L28.9949 42.8637L30.7441 55.1894Z" fill="#DEC0C0"/>
<path d="M35.3184 51.2498H58.5036V59.1184H35.3184V51.2498Z" fill="#DEC0C0"/>
<defs>
<linearGradient id="paint0_linear_5106_5858" x1="336.151" y1="5.76963" x2="317.103" y2="128.499" gradientUnits="userSpaceOnUse">
<stop stop-color="#01CFF0" stop-opacity="0"/>
<stop offset="1" stop-color="#0EC6E5"/>
</linearGradient>
</defs>
</svg>
